<?xml version="1.0" encoding="utf-8"?>
<!-- Generator: Adobe Illustrator 27.0.1, SVG Export Plug-In . SVG Version: 6.00 Build 0)  -->
<svg version="1.1" id="Layer_1" xmlns="http://www.w3.org/2000/svg" xmlns:xlink="http://www.w3.org/1999/xlink" x="0px" y="0px"
	 viewBox="0 0 1080 1080" style="enable-background:new 0 0 1080 1080;" xml:space="preserve">
<style type="text/css">
	.st0{fill:none;stroke:#ED1C24;stroke-miterlimit:10;}
	.st1{fill:#2E3192;}
</style>
<path class="st0" d="M385.3,363.5h240.5c3.2,0,5.8,2.6,5.8,5.8V687c0,3.2-2.6,5.8-5.8,5.8H385.3c-3.2,0-5.8-2.6-5.8-5.8V369.3
	C379.5,366.1,382.1,363.5,385.3,363.5z"/>
<g>
	<path class="st1" d="M406.1,388h0.8l0.1,0.7l0,0c0.5-0.5,1.3-0.9,2-0.9c1.6,0,2.4,1.2,2.4,3c0,2-1.2,3.1-2.7,3.1
		c-0.5,0-1.2-0.3-1.7-0.8l0,0v1.1v2h-1V388H406.1z M410.4,390.8c0-1.3-0.5-2.1-1.6-2.1c-0.5,0-1.1,0.3-1.7,0.9v2.9
		c0.5,0.5,1.2,0.7,1.5,0.7C409.7,393.1,410.4,392.2,410.4,390.8z"/>
	<path class="st1" d="M413.9,388h0.8l0.1,1.4l0,0c0.6-0.9,1.5-1.5,2.6-1.5c0.4,0,0.8,0.1,1.2,0.2l-0.2,0.9c-0.4-0.1-0.6-0.2-1.1-0.2
		c-0.9,0-1.7,0.4-2.4,1.7v3.4h-1V388z"/>
	<path class="st1" d="M420.2,390.9c0-1.9,1.4-3,3-3c1.7,0,2.7,1.1,2.7,2.7c0,0.2,0,0.4,0,0.6H421v-0.8h4.3l-0.3,0.3
		c0-1.4-0.7-2.1-1.8-2.1c-1.1,0-2,0.8-2,2.3s1,2.3,2.3,2.3c0.7,0,1.2-0.2,1.8-0.6l0.4,0.6c-0.6,0.4-1.3,0.7-2.3,0.7
		C421.6,393.9,420.2,392.8,420.2,390.9z"/>
	<path class="st1" d="M429.1,391.5v-2.8h-1.7V388l1.7-0.1l0.1-1.9h0.8v1.9h2.9v0.8H430v2.8c0,1,0.3,1.6,1.5,1.6c0.5,0,1-0.1,1.4-0.3
		l0.2,0.7c-0.5,0.2-1.1,0.3-1.8,0.3C429.6,393.9,429.1,393,429.1,391.5z"/>
	<path class="st1" d="M434.6,390.9c0-1.9,1.4-3,3-3c1.7,0,2.7,1.1,2.7,2.7c0,0.2,0,0.4,0,0.6h-4.9v-0.8h4.3l-0.3,0.3
		c0-1.4-0.7-2.1-1.8-2.1c-1.1,0-2,0.8-2,2.3s1,2.3,2.3,2.3c0.7,0,1.2-0.2,1.8-0.6l0.4,0.6c-0.6,0.4-1.3,0.7-2.3,0.7
		C436,393.9,434.6,392.8,434.6,390.9z"/>
	<path class="st1" d="M442.1,388h0.8l0.1,1l0,0c0.6-0.6,1.3-1.1,2.2-1.1c1.4,0,2,0.8,2,2.4v3.6h-1v-3.5c0-1.1-0.4-1.6-1.3-1.6
		c-0.7,0-1.2,0.3-1.8,1v4.1h-1L442.1,388L442.1,388z"/>
	<path class="st1" d="M448.9,390.9c0-1.9,1.3-3.1,2.6-3.1c0.7,0,1.2,0.3,1.8,0.7l0,0v-1.1v-2.2h1v8.5h-0.8l-0.1-0.8l0,0
		c-0.5,0.5-1.2,0.9-1.9,0.9C449.9,393.9,448.9,392.8,448.9,390.9z M453.3,392.2v-2.9c-0.5-0.5-1-0.7-1.5-0.7c-1,0-1.8,0.9-1.8,2.2
		c0,1.4,0.6,2.2,1.7,2.2C452.2,393.1,452.8,392.8,453.3,392.2z"/>
	<path class="st1" d="M456.3,385.9h1v3.3h3.3v-3.3h1v7.9h-1v-3.7h-3.3v3.7h-1V385.9z"/>
	<path class="st1" d="M463.5,392.3c0-1.3,1.2-1.9,4.2-2.2c0-0.8-0.4-1.5-1.5-1.5c-0.8,0-1.5,0.4-2,0.7l-0.4-0.7
		c0.6-0.4,1.6-0.8,2.6-0.8c1.6,0,2.4,0.9,2.4,2.4v3.6H468l-0.1-0.8l0,0c-0.6,0.5-1.5,0.9-2.3,0.9
		C464.4,393.9,463.5,393.3,463.5,392.3z M467.8,392.3v-1.5c-2.5,0.2-3.3,0.7-3.3,1.5c0,0.7,0.6,0.9,1.3,0.9
		C466.5,393.1,467.1,392.8,467.8,392.3z"/>
	<path class="st1" d="M471.5,388h0.8l0.1,1.4l0,0c0.6-0.9,1.5-1.5,2.6-1.5c0.4,0,0.8,0.1,1.2,0.2L476,389c-0.4-0.1-0.6-0.2-1.1-0.2
		c-0.9,0-1.7,0.4-2.4,1.7v3.4h-1V388z"/>
	<path class="st1" d="M477.7,390.9c0-1.9,1.3-3.1,2.6-3.1c0.7,0,1.2,0.3,1.8,0.7l0,0v-1.1v-2.2h1v8.5h-0.8l-0.1-0.8l0,0
		c-0.5,0.5-1.2,0.9-1.9,0.9C478.7,393.9,477.7,392.8,477.7,390.9z M482.1,392.2v-2.9c-0.5-0.5-1-0.7-1.5-0.7c-1,0-1.8,0.9-1.8,2.2
		c0,1.4,0.6,2.2,1.7,2.2C481,393.1,481.6,392.8,482.1,392.2z"/>
	<path class="st1" d="M485,390.9c0-1.9,1.4-3,3-3c1.7,0,2.7,1.1,2.7,2.7c0,0.2,0,0.4,0,0.6h-4.9v-0.8h4.3l-0.3,0.3
		c0-1.4-0.7-2.1-1.8-2.1c-1.1,0-2,0.8-2,2.3s1,2.3,2.3,2.3c0.7,0,1.2-0.2,1.8-0.6l0.4,0.6c-0.6,0.4-1.3,0.7-2.3,0.7
		C486.4,393.9,485,392.8,485,390.9z"/>
	<path class="st1" d="M493.1,388h0.8l0.1,1.4l0,0c0.6-0.9,1.5-1.5,2.6-1.5c0.4,0,0.8,0.1,1.2,0.2l-0.2,0.9c-0.4-0.1-0.6-0.2-1.1-0.2
		c-0.9,0-1.7,0.4-2.4,1.7v3.4h-1V388z"/>
</g>
<g>
	<rect x="405" y="412" class="st0" width="39.5" height="39.5"/>
	<rect x="458.8" y="412" class="st0" width="39.5" height="39.5"/>
	<rect x="512.7" y="412" class="st0" width="39.5" height="39.5"/>
	<rect x="566.6" y="412" class="st0" width="39.5" height="39.5"/>
	<rect x="405" y="465.9" class="st0" width="39.5" height="39.5"/>
	<rect x="458.8" y="465.9" class="st0" width="39.5" height="39.5"/>
	<rect x="512.7" y="465.9" class="st0" width="39.5" height="39.5"/>
	<path class="st0" d="M606.1,505.4"/>
	<path class="st0" d="M566.6,505.4"/>
	<rect x="405" y="519.7" class="st0" width="39.5" height="39.5"/>
	<rect x="458.8" y="519.7" class="st0" width="39.5" height="39.5"/>
	<path class="st0" d="M566.6,519.7"/>
	<path class="st0" d="M606.1,519.7"/>
	<rect x="512.7" y="519.7" class="st0" width="39.5" height="39.5"/>
	<rect x="405" y="573.6" class="st0" width="39.5" height="39.5"/>
	<rect x="458.8" y="573.6" class="st0" width="39.5" height="39.5"/>
	<rect x="512.7" y="573.6" class="st0" width="39.5" height="39.5"/>
	<rect x="405" y="627.4" class="st0" width="39.5" height="39.5"/>
	<rect x="458.8" y="627.4" class="st0" width="39.5" height="39.5"/>
	<rect x="512.7" y="627.4" class="st0" width="39.5" height="39.5"/>
	<path class="st0" d="M566.6,628.4"/>
	<path class="st0" d="M606.1,628.4"/>
	<circle class="st0" cx="601.9" cy="392" r="4.3"/>
	<circle class="st0" cx="619.7" cy="374.6" r="3.5"/>
	<circle class="st0" cx="390.9" cy="374.6" r="3.5"/>
	<circle class="st0" cx="619.9" cy="681.4" r="3.5"/>
	<circle class="st0" cx="391.2" cy="681.4" r="3.5"/>
</g>
<rect x="566.6" y="600.7" class="st0" width="39.5" height="39.5"/>
<rect x="566.6" y="492.5" class="st0" width="39.5" height="39.5"/>
</svg>
